<?xml version="1.0" encoding="utf-8"?>
<!-- Generator: Adobe Illustrator 16.0.0, SVG Export Plug-In . SVG Version: 6.00 Build 0)  -->
<!DOCTYPE svg PUBLIC "-//W3C//DTD SVG 1.1//EN" "http://www.w3.org/Graphics/SVG/1.1/DTD/svg11.dtd">
<svg version="1.1" id="Layer_1" xmlns="http://www.w3.org/2000/svg" x="0px" y="0px"
	 width="152.11px" height="150px" viewBox="84.069 0 152.11 150" enable-background="new 84.069 0 152.11 150"
	 xml:space="preserve"
>
<g>
	<path fill="#17519D" d="M187.447,23.248c-21.389,10.672-41.517,23.248-61.509,36.105c30.357-10.194,59.812-22.406,88.105-38.521
		c-0.922,1.289-1.582,2.284-2.314,3.222c-6.43,8.248-14.176,15.167-22.205,21.778c-21.383,17.609-45.011,31.736-69.489,44.516
		c-6.322,3.301-12.744,6.42-19.213,9.42c-1.931,0.895-4.157,1.332-6.292,1.561c-3.295,0.354-5.624-1.396-7.177-4.194
		c-2.355-4.239-3.005-8.944-3.207-13.653c-0.213-5.008,0.092-10.037,0.081-15.055c-0.003-1.422,0.596-2.222,1.747-2.952
		c11.532-7.322,23.63-13.574,36.091-19.137c16.382-7.313,33.218-13.426,50.336-18.76C177.383,26.024,182.43,24.685,187.447,23.248z"
	/>
	<path fill="#17519D" d="M208.852,71.943c-19.127,10.627-38.09,21.448-56.271,34.284c29.369-9.465,57.129-21.605,83.26-37.408
		c0.113,0.123,0.228,0.246,0.339,0.369c-0.746,1.073-1.427,2.2-2.25,3.209c-5.228,6.384-11.351,11.875-17.806,16.931
		c-9.334,7.314-18.633,14.744-28.494,21.304c-9.803,6.522-20.155,12.259-30.505,17.91c-7.333,4.007-15.021,7.374-22.624,10.866
		c-1.84,0.844-3.944,1.27-5.97,1.502c-1.458,0.166-3.16,0.059-4.462-0.551c-10.49-4.896-18.898-12.155-24.646-22.318
		c-0.173-0.305-0.324-0.625-0.465-0.948c-0.043-0.1-0.02-0.231-0.015-0.155C132.907,95.289,169.836,81.091,208.852,71.943z"/>
	<path fill="#17519D" d="M150.587,2.495c-15.706,8.087-31.835,15.514-45.783,26.959c2.433-0.495,4.888-0.898,7.293-1.5
		c11.561-2.89,22.366-7.746,33.049-12.888c9.096-4.377,17.977-9.15,26.245-14.988c0.133-0.094,0.308-0.131,0.772,0.052
		c-1.121,1.438-2.166,2.943-3.375,4.302c-6.281,7.057-13.927,12.348-22.135,16.873c-15.086,8.314-30.521,15.933-46.342,22.745
		c-2.443,1.052-5.163,1.634-7.815,1.984c-2.472,0.326-3.474-1.204-2.499-3.598c0.818-2.008,1.943-3.895,2.999-5.799
		c1.03-1.856,2.216-3.628,3.199-5.507c1.379-2.636,3.666-4.275,6.074-5.781c13.043-8.157,26.939-14.581,41.241-20.168
		c2.249-0.878,4.492-1.767,6.74-2.645C150.353,2.496,150.475,2.507,150.587,2.495z"/>
	<path fill="#17519D" d="M208.182,113.855c-17.555,8.399-34.908,17.129-49.964,30.428c3.562,0.188,20.328-5.854,35.001-12.502
		c11.217-5.082,22.268-10.479,32.354-17.789c-0.515,0.584-0.986,1.208-1.546,1.744c-5.707,5.476-12.297,9.746-19.071,13.716
		c-10.638,6.229-21.207,12.599-32.646,17.321c-7.91,3.266-16.082,4.021-24.465,2.406c-1.146-0.225-2.286-0.609-3.35-1.094
		c-2.026-0.92-2.338-2.586-0.628-4.021c2.347-1.965,4.739-3.928,7.331-5.539c12.52-7.795,25.932-13.777,39.652-19.074
		c5.643-2.18,11.42-4.001,17.137-5.985C208.049,113.598,208.115,113.729,208.182,113.855z"/>
</g>
</svg>
