<?xml version="1.0" encoding="utf-8"?>
<!-- Generator: Adobe Illustrator 16.0.0, SVG Export Plug-In . SVG Version: 6.00 Build 0)  -->
<!DOCTYPE svg PUBLIC "-//W3C//DTD SVG 1.1//EN" "http://www.w3.org/Graphics/SVG/1.1/DTD/svg11.dtd">
<svg version="1.1" id="Layer_1" xmlns="http://www.w3.org/2000/svg" x="0px" y="0px"
     width="140.451px" height="148.503px" viewBox="87.042 0.055 140.451 148.503"
     enable-background="new 87.042 0.055 140.451 148.503" xml:space="preserve">
<g>
	<g id="Color_1_">
		<g id="Niels_Bor_1_">
			<path fill="none"
                  d="M161.337,112.391c-0.036,0.1-0.082,0.188-0.136,0.262C161.255,112.577,161.301,112.489,161.337,112.391z"/>
            <path fill="none"
                  d="M158.201,114.451c0.019-0.012,0.039-0.02,0.057-0.03C158.239,114.432,158.22,114.439,158.201,114.451z"/>
            <path fill="none"
                  d="M158.192,113.618c-0.001,0.001-0.003,0.001-0.003,0.001S158.191,113.619,158.192,113.618z"/>
            <path fill="none"
                  d="M157.814,114.68c0.03-0.019,0.062-0.035,0.092-0.056C157.876,114.645,157.844,114.661,157.814,114.68z"/>
            <path fill="none" d="M110.195,46.868c0.943,0.672,1.924,0.982,2.941,0.941C112.119,47.85,111.138,47.54,110.195,46.868
				L110.195,46.868z"/>
            <path fill="none" d="M175.457,65.374c0.001-0.01-0.002-0.017,0-0.026C175.455,65.357,175.458,65.364,175.457,65.374
				L175.457,65.374z"/>
            <polygon fill="none" points="160.466,112.991 160.466,112.991 160.466,112.99 			"/>
            <path fill="none"
                  d="M161.053,112.795c-0.014,0.014-0.025,0.031-0.041,0.042C161.027,112.826,161.039,112.809,161.053,112.795z"
            />
            <path fill="none" d="M160.491,113.002c-0.007,0.009-0.014,0.014-0.022,0.021C160.477,113.016,160.484,113.011,160.491,113.002
				L160.491,113.002z"/>
            <path fill="none"
                  d="M160.785,112.945c-0.004,0.003-0.008,0.005-0.012,0.006C160.777,112.95,160.781,112.948,160.785,112.945z"/>
            <path fill="none" d="M160.491,113.002l0.01-0.001L160.491,113.002z"/>
            <path fill="none"
                  d="M179.146,45.186c0.063-0.06,0.125-0.121,0.188-0.183l0,0C179.271,45.064,179.212,45.126,179.146,45.186z"/>
            <path fill="none" d="M104.145,71.015c0,1.357,0.068,2.697,0.167,4.028c0-2.685,0-5.37,0-8.056
				C104.212,68.319,104.145,69.659,104.145,71.015z"/>
            <path fill="none"
                  d="M110.194,48.082c0.21-0.371-0.046-0.813,0.001-1.214l0,0C110.147,47.269,110.404,47.711,110.194,48.082z"/>
            <polygon fill="none" points="110.176,46.855 110.176,46.855 110.197,46.838 			"/>
            <path fill="none" d="M210.3,71.015c0-1.273-0.063-2.532-0.149-3.784c0,2.535-0.002,5.07-0.002,7.604
				C210.236,73.572,210.3,72.302,210.3,71.015z"/>
            <path fill="#253B80" d="M157.222,17.938c-21.075,0-39.279,12.283-47.849,30.079c0.021,0.022,0.041,0.037,0.063,0.063
				c0.16,0.191,0.425,0.361,0.637,0.156c0.051-0.049,0.091-0.101,0.122-0.153c0.21-0.371-0.046-0.813,0.001-1.214
				c-0.006-0.004-0.013-0.008-0.02-0.012l0,0l0,0c0-0.021-0.004-0.041-0.004-0.062c-0.02-0.039-0.042-0.076-0.064-0.114
				c0.022,0.021,0.052,0.041,0.061,0.065c0.005,0.015,0.002,0.033,0.003,0.049c0.008,0.015,0.016,0.03,0.025,0.045
				c-0.002,0.01-0.001,0.02-0.002,0.029c0.943,0.673,1.924,0.983,2.941,0.941c0.61-0.024,1.234-0.176,1.871-0.453
				c0.319-0.139,0.572,0.007,0.802,0.205c0.311,0.267,0.614,0.291,0.903-0.021c0.268-0.287,0.155-0.506-0.118-0.729
				c-0.283-0.232-0.168-0.396,0.139-0.494c0.229-0.072,0.48-0.125,0.674-0.256c0.427-0.294,0.492-1.218,1.087-1.038
				c0.823,0.249-0.154,0.89,0.069,1.367c0.204,0.437,0.347,0.483,0.734,0.142c1.189-1.049,3.433-0.53,4.75,0.297
				c1.166,0.731,1.918,2.308,3.763,2.053c0.808-0.111,0.776,0.927,0.795,1.616c0.11,4.085,0.07,8.183,0.947,12.209
				c0.009,0.048,0.015,0.097,0.025,0.144c0.408,1.837,0.381,1.793-1.153,2.75c-0.789,0.491-0.956,1.38-1.134,2.273
				c-0.93,4.724,1.516,8.497,3.416,12.428c0.267,0.553,0.566,0.877,1.219,0.321c0.423-0.358,1.111-0.438,1.354,0.229
				c0.269,0.738-0.358,0.674-0.865,0.75c-0.694,0.105-0.361,0.551-0.165,0.869c0.771,1.243,1.84,2.076,3.357,1.988
				c1.019-0.061,1.218,0.406,1.317,1.273c0.486,4.228,1.051,8.442,2.946,12.341c0.318,0.655,0.591,1.366,0.707,2.079
				c0.959,5.971,5.143,9.59,9.463,13.123c0.45,0.367,0.885,0.758,1.327,1.138c1.899,1.662,3.823,2.31,6.086,0.521
				c0.116-0.093,0.238-0.177,0.362-0.256c0.03-0.02,0.062-0.037,0.092-0.057c0.097-0.061,0.194-0.118,0.294-0.173
				c0.019-0.011,0.039-0.021,0.057-0.03c0.761-0.415,1.592-0.748,2.211-1.398c0.008-0.006,0.015-0.012,0.022-0.021
				c-0.009,0.001-0.018,0.004-0.027,0.005c0-0.006,0.002-0.01,0.002-0.016c-0.862-0.174-1.545,0.32-2.274,0.627
				c-0.001,0.001-0.003,0.001-0.003,0.001c-0.107,0.045-0.213,0.085-0.322,0.118c-0.563,0.174-1.046,0.216-1.545-0.051
				c-0.325-0.177-0.304-0.5-0.158-0.771c0.303-0.554,0.591-1.136,1.26-1.353c0.39-0.125,1.057,0.725,1.146-0.158
				c0.059-0.592-0.766-0.393-1.194-0.553c-0.17-0.063-0.323-0.17-0.551-0.293c0.589-0.338,1.122-0.273,1.653-0.246
				c0.655,0.033,1.201-0.227,1.393-0.854c0.19-0.622-0.343-0.973-0.763-1.291c-0.532-0.4-1.734-0.395-1.639-1.023
				c0.243-1.593-1.083-2.963-0.525-4.469c0.359-0.974,1.546-1.06,2.393-1.314c0.939-0.281,1.732-0.465,2.084-1.521
				c0.391-1.164,1.585-0.318,2.305-0.777c-0.074-0.707-0.644-0.691-1.088-0.762c-1.574-0.242-2.852-0.951-3.775-2.267
				c-0.083-0.123-0.18-0.231-0.263-0.353c-0.38-0.55-1.583-0.699-1.311-1.367c0.263-0.642,1.331-0.256,2.001-0.213
				c2.115,0.131,4.141-0.09,6.201-0.67c2.109-0.595,4.184-0.283,5.703,1.598c0.236,0.291,0.518,0.5,0.882,0.346
				c0.37-0.159,0.151-0.514,0.146-0.781c-0.025-1.436-0.764-2.254-2.173-2.515c-0.476-0.085-0.937-0.254-1.405-0.373
				c-0.33-0.082-0.857-0.246-0.94,0.073c-0.356,1.375-1.068,0.839-1.861,0.488c-0.745-0.328-1.526,0.01-2.295,0.075
				c-0.952,0.079-1.968,0.155-1.924-1.286c0.013-0.453-0.29-0.619-0.647-0.645c-1.313-0.087-2.614-0.573-3.939-0.128
				c-1.833,0.614-3.771,0.558-5.616,0.884c-1.105,0.193-2.228,0.225-3.322,0.432c-0.482,0.09-0.896,0.114-1.169-0.322
				c-0.426-0.686-0.64-1.604-1.78-1.383c-0.062,0.012-0.228-0.289-0.276-0.461c-0.158-0.563-0.109-1.285-0.45-1.676
				c-1.886-2.158-0.987-5.201-2.66-7.566c-1.158-1.641-2.052-3.727-2.521-5.846c-0.228-1.029,0.532-2.632,1.734-2.961
				c0.627-0.172,0.884-0.926,1.43-0.942c1.112-0.033,2.211-1.577,3.344-0.076c1.786-0.72,3.77-0.081,5.903-0.691
				c-0.966-0.646-1.614-0.21-2.244-0.169c-0.712,0.047-1.541,0.026-1.883-0.555c-0.344-0.585-0.102-1.419,0.145-2.074
				c0.19-0.504,0.659-0.819,1.048-0.077c1.135,2.167,2.414,2.464,4.409-0.192c0.446,2.188,2.703,2.756,3.774,4.39
				c0.393,0.598,0.743,0.073,0.893-0.381c0.437-1.323,1.096-2.521,1.083-4.049c-0.012-1.191,0.544-2.409,0.554-3.704
				c0.007-1.078-0.417-1.733-1.325-1.954c-2.006-0.491-3.971-1.022-6.106-1.118c-2.725-0.121-5.214,1.291-7.947,0.789
				c-1.26-0.231-1.632-0.703-1.139-1.875c0.169-0.402,0.293-0.832,0.379-1.261c0.063-0.312-0.095-0.587-0.408-0.697
				c-0.269-0.095-0.451,0.074-0.603,0.293c-0.144,0.209-0.099,0.701-0.525,0.527c-0.44-0.177-0.284-0.625-0.125-0.892
				c0.8-1.354-0.723-2.682-0.006-4.057c0.177-0.338-0.358-0.343-0.622-0.373c-0.759-0.089-1.049-0.579-1.222-1.262
				c-0.182-0.712,0.087-0.973,0.757-1.09c0.368-0.064,0.337-0.379,0.187-0.696c-1.145-2.394-0.633-4.745,1.333-6.364
				c0.371-0.305,0.701-0.693,0.957-1.1c1.272-2.023,3.12-2.66,5.448-2.699c2.2-0.037,4.272-0.917,6.139-2.054
				c0.923-0.561,2.187-0.203,2.873-1.226c0.013-0.021,0.111-0.023,0.134,0.001c1.529,1.552,3.792,0.172,5.434,1.379
				c0.735,0.541,1.339-0.337,2.022-0.479c0.615-0.129,0.996-0.186,1.582,0.179c1.004,0.631,2.076,1.335,3.401,0.656
				c0.394-0.201,0.813,0.038,1.239,0.221c1.682,0.727,3.086,2.272,5.184,1.826c0.356-0.076,0.517,0.226,0.685,0.455
				c0.612,0.83,1.417,1.322,2.432,1.499c0.647,0.113,1.101,0.494,0.576,1.088c-0.708,0.799-0.188,1.219,0.323,1.695
				c0.529,0.495,1.162,0.905,1.283,1.763c-0.285,0.089-0.524,0.082-0.74,0.019c-0.646-0.192-1.059-0.896-1.696-1.06
				c-0.062,0.062-0.123,0.123-0.187,0.183c1.096,1.597,1.981,3.43,4.221,3.718c0.006-0.002,0.013-0.005,0.02-0.008
				c0.006-0.01,0.014-0.021,0.021-0.03c0-0.058,0-0.114,0-0.172c-0.009-0.027-0.015-0.056-0.022-0.083l0.021-0.024
				c0,0.036,0,0.071,0.001,0.106c0.012,0.038,0.024,0.074,0.03,0.111c0,0.02-0.015,0.041-0.03,0.062c0,0.016,0,0.032,0,0.047
				c-0.015-0.001-0.022-0.007-0.039-0.009c-0.552,0.315-1.54,0.313-1.358,1.227c0.293,1.472,1.608,1.618,2.852,1.735
				c0.007,0.601-0.471,0.784-0.756,1.033c-0.447,0.393-0.885,0.648-0.228,1.234c0.499,0.444,0.125,0.861-0.116,1.294
				c-0.287,0.521-0.561,0.462-1.031,0.206c-0.537-0.293-0.731,0.11-0.879,0.604c-0.688,2.312-1.174,4.783-0.393,6.996
				c0.563,1.59,0.271,2.791-0.113,4.167c-0.164,0.77-0.152,1.533,0.123,2.28c0.221,0.009,0.446,0.02,0.668,0.029
				c0.273-0.5-0.084-1.199,0.504-1.599c-0.191-0.712,0.058-1.246,0.66-1.638c-0.107-0.873-0.044-1.733,0.172-2.584
				c-0.498-0.597,0.067-1.159-0.072-1.808c0.621,0.163,0.685,0.614,0.873,0.964c1.353-0.049,2.068,0.549,2.492,1.897
				c1.07,3.42,1.112,6.615-0.496,9.989c-0.979,2.049-1.476,4.385-2.322,6.549c-0.701,1.795-1.055,1.995-2.861,1.336
				c-0.535-0.195-0.732,0.049-0.807,0.498c-0.086,0.481-0.127,0.969-0.189,1.45c0.322-0.021,0.846,0.279,0.938-0.098
				c0.424-1.765,1.067-0.38,1.325-0.03c0.67,0.914,1.274,1.93,1.01,3.157c-0.188,0.858,0.518,0.932,0.98,1.215
				c0.416,0.255,0.957,0.431,0.906,1.028c-0.045,0.515-0.544,0.402-0.896,0.535c-0.724,0.273-0.131,1.123-0.922,1.674
				c2.051-0.264,2.238,1.314,2.984,2.219c0.27,0.324-0.047,0.686-0.475,0.643c-1.071-0.115-1.238,0.566-1.495,1.39
				c-0.356,1.142-0.562,2.368-1.362,3.333c-0.14,0.168-0.277,0.373-0.083,0.488c1.177,0.695,0.231,2.043,0.931,2.939
				c0.283,0.359-0.215,0.949-0.697,1.114c-0.832,0.282-1.79,0.286-2.279-0.474c-0.587-0.906-1.283-1.755-1.359-3.007
				c-0.091-1.374-0.533-2.778-2.019-3.45c1.886,4.457,1.673,8.646-0.683,13.033c-1.877,3.496-3.15,7.342-4.676,11.042
				c-0.066,0.169-0.152,0.318-0.229,0.479c20.949-6.059,36.557-24.666,38.158-47.159c0-2.535,0.002-5.07,0.002-7.604
				C208.207,39.686,185.264,17.938,157.222,17.938z M133.957,78.773c-0.855,0.25-1.152-0.629-1.765-0.926
				c0.722-0.046,1.509-0.291,1.881,0.562C134.113,78.501,134.03,78.752,133.957,78.773z M157.394,23.192
				c0.549,0.666,0.332,1.36,0.293,2.022C157.184,24.647,156.465,24.119,157.394,23.192z M157.549,28.643
				c-0.388-0.241-0.204-0.71-0.426-1.011c-0.161-0.218-0.415-0.46-0.191-0.766c0.06-0.081,0.268-0.128,0.371-0.09
				c0.341,0.126,0.564,0.391,0.554,0.767C157.843,27.918,157.833,28.311,157.549,28.643z M163.156,22.708
				c-0.057,0.254-0.215,0.502-0.487,0.439c-0.664-0.153-1.242,0.162-1.886,0.3c-0.572-0.207-1.137-0.442-1.743,0.084
				c-0.287,0.25-0.477-0.135-0.546-0.439c-0.201-0.88,0.998-1.532,1.744-1.882c1.469-0.688,1.647,1.056,2.646,1.049
				C163.064,22.257,163.206,22.481,163.156,22.708z M165.589,24.807c-0.247,0.961-0.526,1.886-1.491,2.499
				c-0.385-1.835,0.101-3.259,1.772-4.235c0.532-0.311,1.06-0.699,1.394-1.271c0.401-0.686,1.084-0.575,1.703-0.517
				c0.764,0.073,0.918,0.451,0.426,1.073c-0.395,0.5-0.896,0.758-1.525,0.686C166.52,22.886,165.887,23.647,165.589,24.807z
				 M169.795,27.649c-0.475,0.113-1.045,0.458-1.334-0.04c-0.335-0.573,0.395-0.761,0.697-1.099
				c1.557-1.739,3.371-0.786,5.137-0.509C172.561,25.933,171.34,27.277,169.795,27.649z M177.582,28.225
				c1.107-0.092,2.204-0.162,2.898,1.289C179.331,29.219,178.605,28.348,177.582,28.225z M183.799,106.605
				c-0.402-0.032-0.554-0.34-0.558-0.696c-0.003-0.235,0.202-0.3,0.407-0.259c0.317,0.061,0.479,0.271,0.508,0.533
				C184.121,106.454,184.009,106.623,183.799,106.605z"/>
            <polygon fill="#253B80" points="160.466,112.991 160.466,112.991 160.466,112.991 			"/>
            <path fill="#179BD7" d="M110.197,46.838l-0.021,0.017c0.006,0.005,0.013,0.008,0.019,0.012
				C110.196,46.858,110.195,46.847,110.197,46.838z"/>
            <polygon fill="#179BD7" points="110.195,46.867 110.195,46.867 110.195,46.867 			"/>
            <path fill="#179BD7" d="M127.778,115.177c0.329-0.219,0.659-0.436,0.993-0.651c1.265-0.813,2.336-1.952,3.677-2.661
				c2.404-1.269,3.068-3.835,4.489-5.833c0.955-1.336,1.456-2.969,2.702-4.369c0.475,1.123,0.247,2.088,0.043,2.982
				c-1.224,5.362-0.152,10.61,0.742,15.864c0.059,0.347,0.187,0.666,0.347,0.974c0.361,0.117,0.722,0.232,1.086,0.345
				c0.003-0.298,0.008-0.579,0.113-0.806c1.201-2.596-0.967-4.567-1.174-6.895c-0.084-0.939-0.646-1.807-0.136-2.814
				c0.24-0.475-0.421-0.691-0.64-1.049c-0.209-0.339-0.483-0.713-0.127-1.057c0.374-0.359,0.729-0.014,1.034,0.211
				c0.628,0.463,1.253,0.932,1.853,1.43c0.244,0.2,0.729,0.428,0.507,0.784c-0.816,1.313,0.329,1.638,1.046,2.082
				c1.516,0.938,2.904,2.101,4.837,2.248c1.294,0.097,2.166-0.024,2.195-1.546c-0.442-0.38-0.877-0.77-1.327-1.139
				c-4.32-3.532-8.504-7.151-9.463-13.121c-0.116-0.715-0.388-1.426-0.707-2.08c-1.895-3.896-2.459-8.113-2.946-12.34
				c-0.099-0.868-0.299-1.336-1.317-1.274c-1.517,0.088-2.586-0.745-3.357-1.987c-0.197-0.318-0.53-0.765,0.165-0.869
				c0.507-0.076,1.133-0.013,0.865-0.752c-0.243-0.666-0.931-0.588-1.354-0.229c-0.653,0.555-0.952,0.232-1.219-0.32
				c-1.9-3.932-4.346-7.705-3.416-12.429c0.178-0.893,0.346-1.783,1.134-2.273c1.534-0.957,1.561-0.913,1.153-2.75
				c-0.01-0.047-0.016-0.096-0.025-0.144c-0.877-4.026-0.837-8.124-0.947-12.209c-0.019-0.689,0.013-1.727-0.795-1.616
				c-1.844,0.255-2.597-1.322-3.763-2.053c-1.317-0.827-3.561-1.346-4.75-0.297c-0.387,0.341-0.53,0.294-0.734-0.142
				c-0.223-0.478,0.754-1.118-0.069-1.367c-0.596-0.18-0.661,0.744-1.087,1.038c-0.194,0.131-0.445,0.184-0.674,0.256
				c-0.307,0.098-0.422,0.261-0.139,0.494c0.273,0.223,0.386,0.442,0.118,0.729c-0.289,0.312-0.592,0.288-0.903,0.021
				c-0.23-0.198-0.483-0.344-0.802-0.205c-0.637,0.276-1.26,0.428-1.871,0.453c-1.017,0.042-1.998-0.269-2.941-0.941
				c-0.048,0.401,0.209,0.843-0.001,1.214c-0.031,0.052-0.071,0.104-0.122,0.153c-0.212,0.205-0.477,0.035-0.637-0.156
				c-0.021-0.025-0.041-0.04-0.063-0.063c-2.799,5.813-4.553,12.217-5.061,18.971c0,2.686,0,5.371,0,8.056
				C105.57,91.786,114.581,106.359,127.778,115.177z"/>
            <path fill="#179BD7" d="M110.195,46.867c0.001-0.009,0-0.02,0.002-0.029C110.195,46.847,110.196,46.858,110.195,46.867
				L110.195,46.867z"/>
            <path fill="#179BD7" d="M110.176,46.855L110.176,46.855c0.006,0.005,0.013,0.008,0.019,0.013l0,0
				C110.189,46.863,110.182,46.86,110.176,46.855z"/>
            <path fill="#F2F3F5" d="M176.895,110.475c2.354-4.388,2.567-8.576,0.683-13.033c-0.04-0.385-0.213-0.813-0.101-1.146
				c1.215-3.579,1.674-7.314,2.377-11.001c0.035-0.187,0.155-0.353,0.235-0.528c0.063-0.481,0.104-0.969,0.188-1.449
				c0.074-0.45,0.271-0.694,0.808-0.498c1.808,0.658,2.16,0.457,2.86-1.338c0.849-2.164,1.346-4.498,2.322-6.547
				c1.609-3.375,1.567-6.569,0.498-9.989c-0.425-1.348-1.142-1.946-2.492-1.897c-0.115,0.425-0.357,0.732-0.801,0.844
				c-0.217,0.851-0.281,1.712-0.173,2.584c0.083,0.475,0.201,0.947,0.232,1.426c0.022,0.309,0.095,0.766-0.339,0.82
				c-0.156,0.02-0.367-0.393-0.555-0.607c-0.589,0.4-0.229,1.098-0.504,1.599c0.26,0.594,0.842,0.79,1.346,1.059
				c1.211,0.644,1.313,1.718,1.17,2.886c-0.15,1.229-0.594,2.248-1.938,2.628c-0.766,0.217-1.109,0.129-0.939-0.793
				c0.129-0.709,0.091-1.449,0.123-2.176c-0.074-0.7-0.607-1.288-0.498-2.034c0.023-0.533,0.045-1.064,0.067-1.598
				c-0.274-0.748-0.286-1.51-0.123-2.28c-0.905-0.962-0.76-2.237-0.743-3.34c0.062-4.435-0.363-8.859-0.149-13.3
				c0.084-1.775-1.286-3.223-1.933-4.845c-0.564-1.419-1.283-2.827-2.492-3.932c-0.92-0.841-2.133-0.883-3.127-1.518
				c-2.84-1.811-5.953-1.715-9.188-1.307c-2.6,0.328-5.223,0.631-7.882,0.519c-1.029-0.044-2.114,0.163-3.18,0.192
				c-0.226,0.007-0.578,0.095-0.653,0.252c-0.731,1.51-2.075,2.746-2.138,4.549c-0.012,0.351,0.233,0.751,0.454,1.063
				c0.453,0.639,0.788,1.245,0.224,1.995c-0.099,0.13-0.153,0.46-0.073,0.533c1.389,1.289,0.504,3.375,1.677,4.734
				c0.184,0.214,0.385,0.462-0.014,0.716c-1.476,0.94-0.424,2.077-0.179,3.108c0.248,1.048,1.254,1.08,2.041,1.044
				c1.958-0.089,3.476,1.123,5.219,1.652c0.81,0.247,1.592,0.568,2.172,0.036c1.828-1.682,3.977-1.472,6.166-1.334
				c1.751,0.111,3.531,0.32,5.26,0.132c1.608-0.175,3.045,0.506,4.596,0.481c0.617-0.01,1.35,0.255,1.418,1.029
				c0.065,0.75-0.301,1.494-0.866,1.925c-0.554,0.423-1.201,0.136-1.652-0.417c-0.269,0.076-0.534,0.153-0.801,0.229
				c-0.696,1.432,0.498,2.008,1.302,2.663c0.872,0.714,0.855,1.194-0.125,1.689c0.033,0.301,0.069,0.602,0.105,0.903
				c0.213,0.447,0.259,0.844-0.311,1.066c-0.109-0.043-0.222-0.079-0.336-0.114c-0.342-0.107-0.683-0.213-0.926-0.516
				c-0.13,0.019-0.259,0.036-0.389,0.054c-0.18-0.017-0.358-0.033-0.538-0.049c-0.603,0.582-0.07,1.883-0.738,2.046
				c-1.662,0.404-3.173,1.38-4.946,1.334c-2.563-0.066-4.326-1.835-4.418-4.438c-0.031-0.848,0.235-1.845-1.065-2.048
				c-1.175-0.182-1.657,0.442-2.218,1.411c-0.98,1.688-0.583,3.324,0.084,4.777c1.024,2.229,0.98,4.45,0.653,6.732
				c-0.185,1.279,0.044,2.273,1.359,2.697c1.165,0.375,0.774,1.733,1.582,2.307c0.604-0.331,1.249-0.711,1.874-0.158
				c0.488,0.436,0.104,0.876-0.211,1.26c-0.062,0.338-0.191,0.627-0.598,0.608c-0.341-0.015-0.445-0.259-0.447-0.563
				c-0.205-0.093-0.411-0.185-0.618-0.277c-1.462,0.179-1.513,1.082-1.075,2.174c0.407,1.018,0.717,2.023,0.398,3.135
				c-0.113,0.398-0.041,0.827,0.367,1.025c1.438,0.699,2.789,1.658,4.506,1.568c2.104-0.111,3.719,0.707,4.68,2.608
				c0.979,1.93,0.168,3.597-0.924,5.167c-0.36,0.521-0.98,0.707-1.572,0.52c-0.559-0.176-0.602-0.758-0.538-1.244
				c0.174-1.246-0.528-2.043-1.364-2.756c-0.462-0.392-2.225-0.016-2.416,0.484c-0.053,0.143,0.031,0.391,0.137,0.521
				c0.207,0.27,0.531,0.457,0.707,0.742c0.459,0.731,2.121,0.625,1.717,1.631c-0.281,0.696-0.872,1.472-1.314,2.209
				c-0.313,0.521-0.734,0.523-1.246,0.539c-1.462,0.043-2.761,0.414-3.76,1.645c-0.652,0.806-0.578,1.395-0.055,2.218
				c0.777,1.236,1.845,2.072,3.064,2.81c1.362,0.824,1.348,1.412-0.039,2.09c-1.521,0.74-2.762,2.033-4.513,2.322
				c-0.036,0.101-0.082,0.188-0.136,0.263c-0.043,0.057-0.096,0.102-0.148,0.144c-0.014,0.014-0.025,0.031-0.041,0.042
				c-0.066,0.046-0.145,0.082-0.227,0.109c-0.004,0.002-0.008,0.004-0.012,0.005c-0.084,0.027-0.176,0.043-0.272,0.05
				c-0.005,0-0.008,0.001-0.011,0.001c-0.007,0.01-0.014,0.014-0.022,0.021c-0.619,0.65-1.449,0.982-2.211,1.397
				c-0.019,0.011-0.038,0.021-0.057,0.03c-0.101,0.055-0.197,0.111-0.294,0.173c-0.03,0.021-0.062,0.037-0.092,0.056
				c-0.124,0.08-0.246,0.164-0.362,0.258c-2.263,1.789-4.187,1.142-6.086-0.521c-0.03,1.521-0.901,1.643-2.195,1.546
				c-1.934-0.147-3.322-1.31-4.837-2.248c-0.717-0.444-1.863-0.768-1.046-2.081c0.222-0.357-0.263-0.585-0.507-0.785
				c-0.6-0.498-1.225-0.967-1.853-1.43c-0.305-0.224-0.66-0.57-1.034-0.211c-0.356,0.344-0.083,0.719,0.127,1.057
				c0.219,0.356,0.88,0.574,0.64,1.049c-0.51,1.009,0.051,1.875,0.136,2.814c0.208,2.326,2.375,4.299,1.174,6.895
				c-0.105,0.227-0.11,0.508-0.113,0.806c2.359,0.711,4.786,1.272,7.271,1.653c0.858-1.817,1.798-3.578,3.083-5.16
				c1.091-1.346,1.11-1.395,2.022,0.127c1.014,1.695,2.554,3.09,2.979,5.126c0.147,0.163,0.28,0.335,0.409,0.512
				c4.983-0.038,9.8-0.769,14.368-2.089c0.076-0.161,0.162-0.311,0.229-0.479C173.743,117.814,175.018,113.971,176.895,110.475z
				 M184.77,65.475c0.156-0.272,0.053-0.677,0.549-0.677c0.435,0,0.602,0.296,0.705,0.619c0.65,2.052,1.195,4.113,0.328,6.246
				c0.178,0.53,0.17,1.037-0.23,1.681c-0.376-0.66-0.732-1.154-0.303-1.815c-0.082-0.493-0.168-0.987-0.254-1.479
				c-0.354-0.572-0.51-1.19-0.433-1.864C184.723,67.323,184.182,66.499,184.77,65.475z M170.334,84.615
				c-0.641,0.019-2.443-2.395-2.279-2.991c0.113-0.401,0.409-0.653,0.735-0.308c0.694,0.738,1.351,1.522,1.937,2.35
				C171.01,84.07,170.902,84.52,170.334,84.615z"/>
            <polygon fill="#FFFFFF" points="160.491,113.002 160.491,113.002 160.491,113.002 			"/>
            <path fill="#FFFFFF"
                  d="M157.453,114.938c0.116-0.094,0.238-0.178,0.362-0.258C157.69,114.76,157.568,114.844,157.453,114.938z"
            />
            <path fill="#FFFFFF"
                  d="M157.906,114.624c0.097-0.062,0.194-0.118,0.294-0.173C158.1,114.506,158.003,114.563,157.906,114.624z"
            />
            <path fill="#FFFFFF" d="M160.464,113.007c0.009-0.001,0.018-0.004,0.027-0.005l0,0
				C160.482,113.003,160.473,113.006,160.464,113.007z"/>
            <path fill="#FFFFFF"
                  d="M158.258,114.421c0.762-0.415,1.592-0.748,2.211-1.397C159.85,113.673,159.019,114.006,158.258,114.421z"
            />
            <path fill="#253B80" d="M139.683,104.645c0.204-0.896,0.432-1.859-0.043-2.982c-1.246,1.4-1.748,3.033-2.702,4.369
				c-1.421,1.998-2.085,4.564-4.489,5.833c-1.341,0.709-2.412,1.848-3.677,2.661c-0.334,0.217-0.664,0.434-0.993,0.651
				c3.982,2.661,8.349,4.79,12.993,6.306c-0.16-0.308-0.288-0.627-0.347-0.974C139.53,115.255,138.458,110.007,139.683,104.645z"/>
            <path fill="#253B80" d="M154.234,118.445c-0.913-1.521-0.932-1.473-2.022-0.127c-1.285,1.582-2.225,3.344-3.083,5.16
				c2.619,0.4,5.3,0.609,8.031,0.612c0.022-0.17,0.042-0.342,0.054-0.521C156.788,121.536,155.248,120.143,154.234,118.445z"/>
            <path fill="#179BD7" d="M183.387,48.896c-0.006,0.003-0.013,0.006-0.019,0.008c0.017,0.002,0.024,0.007,0.039,0.009
				L183.387,48.896z"/>
            <path fill="#179BD7" d="M160.466,112.991C160.466,112.99,160.466,112.99,160.466,112.991c0.054-0.538,0.495-0.523,0.871-0.603
				c1.751-0.289,2.99-1.582,4.513-2.322c1.387-0.678,1.401-1.267,0.039-2.09c-1.221-0.736-2.287-1.572-3.064-2.81
				c-0.523-0.824-0.598-1.412,0.055-2.218c0.999-1.23,2.298-1.602,3.76-1.645c0.512-0.016,0.934-0.018,1.246-0.539
				c0.442-0.738,1.033-1.513,1.314-2.209c0.404-1.006-1.258-0.898-1.717-1.632c-0.176-0.284-0.5-0.473-0.707-0.741
				c-0.104-0.132-0.188-0.379-0.137-0.521c0.191-0.5,1.954-0.876,2.416-0.484c0.836,0.713,1.538,1.51,1.364,2.756
				c-0.063,0.486-0.021,1.068,0.538,1.243c0.592,0.188,1.212,0.003,1.572-0.519c1.092-1.57,1.9-3.237,0.924-5.167
				c-0.961-1.9-2.575-2.72-4.68-2.609c-1.717,0.091-3.068-0.868-4.506-1.567c-0.408-0.199-0.48-0.627-0.367-1.025
				c0.317-1.112,0.009-2.117-0.398-3.135c-0.438-1.092-0.386-1.995,1.075-2.174c0-0.291,0-0.58,0-0.869
				c-0.808-0.573-0.417-1.932-1.582-2.307c-1.315-0.423-1.544-1.419-1.358-2.697c0.326-2.282,0.37-4.504-0.654-6.732
				c-0.667-1.453-1.064-3.089-0.084-4.777c0.561-0.969,1.043-1.593,2.218-1.411c1.302,0.203,1.034,1.2,1.065,2.048
				c0.092,2.602,1.855,4.371,4.418,4.438c1.773,0.046,3.284-0.93,4.946-1.334c0.668-0.164,0.136-1.465,0.738-2.046
				c0.08-0.344,0.144-0.744-0.209-0.92c-0.455-0.229-0.513,0.276-0.714,0.514c-1.245,1.47-2.354,1.372-3.293-0.291
				c-0.23-0.408-0.31-1.003-0.973-0.892c-0.58,0.097-0.92,0.485-1.094,1.053c-0.091,0.294,0.051,0.795-0.41,0.818
				c-0.41,0.021-0.664-0.348-0.861-0.699c-0.873-1.55-0.516-2.888,1.188-3.707c1.465-0.703,3.016-1.044,4.555-0.012
				c0.344,0.231,0.85,0.208,1.238,0.39c0.1,0.047,0.204,0.092,0.309,0.136c0.728,0.31,1.488,0.606,1.438,1.665
				c0.604-0.206,0.755,0.521,1.221,0.601c0.98-0.495,0.997-0.976,0.125-1.689c-0.804-0.654-1.998-1.23-1.302-2.663
				c-1.69-0.124-3.396-0.083-5.037,0.225c-1.922,0.359-3.854,0.542-5.787,0.786c-0.631,0.08-1.211,0.042-1.456-0.64
				c-0.25-0.686,0.446-0.809,0.793-1.04c3.108-2.071,6.453-1.845,9.797-0.792c0.85,0.267,2.024,0.109,2.491,1.232
				c0.451,0.553,1.099,0.841,1.652,0.417c0.565-0.431,0.933-1.175,0.866-1.925c-0.068-0.774-0.801-1.039-1.418-1.029
				c-1.551,0.024-2.986-0.656-4.596-0.481c-1.729,0.188-3.509-0.021-5.26-0.132c-2.189-0.138-4.338-0.348-6.166,1.334
				c-0.58,0.532-1.362,0.21-2.172-0.036c-1.743-0.53-3.262-1.742-5.219-1.652c-0.787,0.036-1.793,0.004-2.041-1.044
				c-0.245-1.031-1.297-2.168,0.179-3.108c0.398-0.254,0.197-0.502,0.014-0.716c-1.173-1.359-0.288-3.446-1.677-4.734
				c-0.08-0.073-0.026-0.403,0.073-0.533c0.564-0.75,0.229-1.355-0.224-1.995c-0.22-0.311-0.466-0.711-0.454-1.063
				c0.063-1.803,1.406-3.039,2.138-4.549c0.075-0.157,0.428-0.245,0.653-0.252c1.065-0.03,2.15-0.236,3.18-0.192
				c2.659,0.112,5.282-0.191,7.882-0.519c3.234-0.408,6.348-0.504,9.188,1.307c0.994,0.635,2.207,0.677,3.127,1.518
				c1.209,1.105,1.928,2.513,2.492,3.932c0.646,1.622,2.017,3.07,1.933,4.845c-0.214,4.441,0.211,8.865,0.149,13.3
				c-0.017,1.104-0.162,2.378,0.744,3.34c0.385-1.376,0.678-2.577,0.113-4.167c-0.781-2.213-0.296-4.684,0.393-6.996
				c0.146-0.494,0.342-0.897,0.879-0.604c0.472,0.257,0.744,0.315,1.031-0.206c0.241-0.433,0.615-0.85,0.116-1.294
				c-0.657-0.586-0.221-0.842,0.228-1.234c0.285-0.25,0.763-0.432,0.756-1.033c-1.242-0.117-2.559-0.263-2.853-1.735
				c-0.181-0.914,0.808-0.912,1.359-1.227c-2.238-0.289-3.125-2.121-4.222-3.718c-0.07-0.198-0.03-0.28,0.188-0.183l0,0l0,0
				c0.639,0.164,1.05,0.868,1.695,1.061c0.217,0.063,0.455,0.07,0.74-0.019c-0.119-0.858-0.754-1.269-1.283-1.763
				c-0.512-0.477-1.03-0.896-0.322-1.695c0.523-0.595,0.072-0.976-0.576-1.088c-1.016-0.176-1.818-0.669-2.432-1.499
				c-0.168-0.229-0.327-0.531-0.684-0.455c-2.099,0.446-3.504-1.099-5.185-1.826c-0.427-0.184-0.847-0.422-1.239-0.221
				c-1.326,0.679-2.396-0.025-3.402-0.656c-0.584-0.365-0.967-0.308-1.582-0.179c-0.684,0.142-1.285,1.02-2.021,0.479
				c-1.641-1.208-3.905,0.173-5.434-1.379c-0.023-0.024-0.122-0.022-0.134-0.001c-0.686,1.022-1.949,0.665-2.873,1.226
				c-1.867,1.138-3.939,2.017-6.139,2.054c-2.329,0.039-4.176,0.675-5.448,2.699c-0.256,0.407-0.586,0.795-0.957,1.1
				c-1.966,1.619-2.478,3.97-1.333,6.364c0.151,0.316,0.181,0.632-0.187,0.696c-0.67,0.118-0.938,0.378-0.757,1.09
				c0.173,0.683,0.463,1.172,1.222,1.262c0.264,0.03,0.799,0.035,0.622,0.373c-0.717,1.375,0.806,2.703,0.006,4.057
				c-0.159,0.267-0.314,0.715,0.125,0.892c0.426,0.173,0.381-0.318,0.525-0.527c0.151-0.219,0.334-0.389,0.603-0.293
				c0.313,0.109,0.471,0.385,0.408,0.697c-0.086,0.429-0.21,0.858-0.379,1.261c-0.493,1.172-0.122,1.644,1.139,1.875
				c2.732,0.502,5.222-0.91,7.947-0.789c2.135,0.095,4.1,0.627,6.106,1.118c0.908,0.221,1.332,0.876,1.325,1.954
				c-0.009,1.295-0.565,2.513-0.554,3.704c0.013,1.528-0.646,2.727-1.083,4.049c-0.15,0.454-0.5,0.979-0.893,0.381
				c-1.071-1.634-3.328-2.202-3.774-4.39c-1.995,2.656-3.274,2.359-4.409,0.192c-0.389-0.742-0.858-0.428-1.048,0.077
				c-0.247,0.654-0.488,1.489-0.145,2.074c0.342,0.581,1.171,0.602,1.883,0.555c0.63-0.042,1.278-0.478,2.244,0.169
				c-2.133,0.61-4.117-0.029-5.903,0.691c-1.132-1.501-2.231,0.042-3.344,0.076c-0.545,0.016-0.803,0.77-1.43,0.942
				c-1.203,0.329-1.962,1.932-1.734,2.961c0.469,2.12,1.363,4.206,2.521,5.846c1.672,2.365,0.774,5.408,2.66,7.566
				c0.341,0.391,0.292,1.112,0.45,1.676c0.048,0.172,0.214,0.473,0.276,0.461c1.141-0.221,1.354,0.697,1.78,1.383
				c0.272,0.438,0.687,0.413,1.169,0.322c1.094-0.207,2.217-0.236,3.322-0.432c1.845-0.326,3.783-0.27,5.616-0.884
				c1.326-0.444,2.628,0.041,3.938,0.128c0.358,0.025,0.661,0.189,0.648,0.645c-0.044,1.441,0.972,1.365,1.924,1.287
				c0.768-0.065,1.549-0.403,2.295-0.076c0.793,0.351,1.505,0.888,1.861-0.488c0.083-0.319,0.611-0.155,0.939-0.073
				c0.471,0.119,0.932,0.288,1.406,0.373c1.409,0.261,2.146,1.079,2.173,2.515c0.007,0.269,0.226,0.623-0.146,0.781
				c-0.364,0.155-0.645-0.054-0.881-0.345c-1.521-1.881-3.594-2.192-5.705-1.599c-2.062,0.58-4.084,0.801-6.2,0.67
				c-0.67-0.043-1.738-0.428-2.001,0.213c-0.272,0.668,0.93,0.818,1.311,1.367c0.083,0.121,0.18,0.229,0.263,0.353
				c0.924,1.315,2.2,2.024,3.775,2.267c0.444,0.069,1.015,0.055,1.087,0.762c-0.719,0.459-1.912-0.387-2.304,0.777
				c-0.353,1.057-1.145,1.24-2.084,1.521c-0.847,0.256-2.034,0.342-2.393,1.314c-0.558,1.506,0.768,2.877,0.525,4.469
				c-0.095,0.631,1.107,0.623,1.639,1.023c0.42,0.318,0.953,0.669,0.763,1.291c-0.192,0.628-0.737,0.887-1.393,0.854
				c-0.531-0.027-1.064-0.092-1.653,0.246c0.228,0.123,0.381,0.23,0.551,0.293c0.428,0.16,1.252-0.039,1.194,0.553
				c-0.09,0.883-0.757,0.033-1.146,0.158c-0.668,0.218-0.957,0.8-1.26,1.353c-0.146,0.271-0.167,0.595,0.158,0.771
				c0.5,0.267,0.983,0.225,1.545,0.052c0.108-0.034,0.215-0.074,0.322-0.119c0,0,0.002,0,0.003-0.001
				C158.919,113.313,159.604,112.818,160.466,112.991z M161.533,84.725c-1.415,1.272-2.868,1.604-4.679,0.967
				c-1.605-0.564-2.887-2.408-2.438-4.074c0.382-1.426-0.317-2.846,0.234-4.289c0.487-1.277,1.591-2.288,1.562-3.811
				c-0.007-0.405,0.396-1.257,0.997-1.018c0.663,0.265,0.949,1.036,0.923,1.828c-0.022,0.622-1.117,1.356,0.271,1.897
				c0.244,0.094-0.219,1.059-0.836,1.31c-0.815,0.332-1.125,1.046-1.363,1.805c-0.117,0.369-0.261,0.836,0.097,1.097
				c0.389,0.281,0.772-0.031,0.983-0.354c0.223-0.343,0.442-0.495,0.831-0.335l-0.019,0.019c1.435-0.896,2.845-0.176,4.421,2.262
				C162.995,82.762,162.426,83.924,161.533,84.725z M166.337,93.857c0.362,0.017,0.636,0.175,0.688,0.57
				c-0.316,0.576-0.827,0.65-1.364,0.619c-0.293-0.018-0.64-0.123-0.563-0.488C165.234,93.904,165.783,93.835,166.337,93.857z"/>
            <path fill="#179BD7" d="M175.457,65.374c0.001-0.01-0.002-0.017,0-0.026c-0.007,0.002-0.014,0.001-0.021,0.004
				C175.438,65.352,175.457,65.374,175.457,65.374z"/>
            <path fill="#179BD7" d="M179.334,45.003c0.639,0.164,1.05,0.868,1.695,1.06C180.384,45.871,179.973,45.167,179.334,45.003
				L179.334,45.003z"/>
            <path fill="#179BD7" d="M158.192,113.618c0.729-0.308,1.412-0.8,2.274-0.627l0,0
				C159.604,112.818,158.919,113.313,158.192,113.618z"/>
            <path fill="#179BD7" d="M158.189,113.619c-0.107,0.045-0.213,0.085-0.322,0.119C157.976,113.704,158.082,113.664,158.189,113.619
				z"/>
            <path fill="#179BD7" d="M160.466,112.991c0,0.006-0.002,0.01-0.002,0.016C160.464,113.001,160.466,112.997,160.466,112.991
				L160.466,112.991z"/>
            <path fill="#179BD7" d="M177.477,96.294c-0.113,0.333,0.061,0.763,0.101,1.146c1.485,0.672,1.928,2.076,2.019,3.451
				c0.076,1.252,0.772,2.1,1.359,3.006c0.488,0.76,1.447,0.756,2.279,0.474c0.482-0.165,0.98-0.754,0.697-1.114
				c-0.697-0.896,0.245-2.244-0.931-2.939c-0.194-0.115-0.058-0.32,0.083-0.488c0.801-0.965,1.006-2.191,1.361-3.333
				c0.258-0.822,0.425-1.505,1.496-1.39c0.428,0.043,0.742-0.317,0.475-0.643c-0.746-0.902-0.934-2.482-2.984-2.219
				c0.791-0.551,0.198-1.398,0.922-1.674c0.353-0.133,0.852-0.021,0.896-0.535c0.051-0.598-0.49-0.771-0.906-1.028
				c-0.464-0.282-1.17-0.356-0.98-1.215c0.266-1.228-0.34-2.243-1.01-3.157c-0.258-0.35-0.901-1.732-1.326,0.03
				c-0.092,0.377-0.614,0.078-0.938,0.099c-0.08,0.174-0.199,0.342-0.236,0.527C179.15,88.979,178.689,92.715,177.477,96.294z"/>
            <path fill="#179BD7" d="M182.898,71.793c0.25,0.835-0.109,1.377-1.002,1.52c-0.031,0.727,0.008,1.467-0.123,2.176
				c-0.17,0.922,0.176,1.01,0.94,0.793c1.343-0.38,1.786-1.399,1.937-2.628c0.144-1.167,0.041-2.242-1.17-2.886
				c-0.502-0.269-1.086-0.464-1.344-1.059c-0.223-0.009-0.447-0.02-0.67-0.029c-0.021,0.534-0.044,1.065-0.066,1.598
				C182.049,71.02,182.664,71.013,182.898,71.793z"/>
            <path fill="#179BD7" d="M169.393,22.355c0.492-0.622,0.338-1-0.426-1.073c-0.619-0.059-1.302-0.169-1.703,0.517
				c-0.334,0.572-0.859,0.96-1.394,1.271c-1.673,0.976-2.157,2.4-1.772,4.235c0.965-0.612,1.244-1.538,1.491-2.499
				c0.298-1.159,0.931-1.92,2.277-1.766C168.496,23.113,168.998,22.855,169.393,22.355z"/>
            <path fill="#179BD7" d="M162.884,22.259c-0.999,0.007-1.177-1.736-2.646-1.049c-0.746,0.35-1.945,1.002-1.744,1.882
				c0.07,0.304,0.26,0.689,0.546,0.439c0.606-0.526,1.171-0.292,1.743-0.084c0.644-0.138,1.222-0.453,1.886-0.3
				c0.272,0.063,0.433-0.186,0.487-0.439C163.206,22.481,163.064,22.257,162.884,22.259z"/>
            <path fill="#179BD7" d="M169.158,26.511c-0.303,0.338-1.032,0.525-0.697,1.099c0.289,0.499,0.859,0.153,1.334,0.04
				c1.545-0.373,2.766-1.717,4.5-1.647C172.529,25.725,170.715,24.772,169.158,26.511z"/>
            <path fill="#179BD7"
                  d="M177.582,28.225c1.023,0.124,1.749,0.995,2.898,1.289C179.786,28.063,178.689,28.133,177.582,28.225z"/>
            <path fill="#179BD7"
                  d="M157.394,23.192c-0.928,0.926-0.209,1.455,0.293,2.022C157.726,24.552,157.943,23.858,157.394,23.192z"/>
            <path fill="#179BD7" d="M157.302,26.775c-0.103-0.039-0.311,0.009-0.371,0.09c-0.224,0.306,0.03,0.548,0.191,0.766
				c0.222,0.301,0.039,0.77,0.426,1.011c0.284-0.332,0.294-0.725,0.307-1.101C157.866,27.166,157.643,26.902,157.302,26.775z"/>
            <path fill="#179BD7" d="M132.192,77.848c0.613,0.297,0.91,1.176,1.765,0.926c0.073-0.021,0.156-0.272,0.117-0.364
				C133.702,77.557,132.915,77.802,132.192,77.848z"/>
            <path fill="#179BD7" d="M184.273,63.044c-0.189-0.35-0.252-0.802-0.875-0.964c0.142,0.649-0.424,1.211,0.074,1.808
				C183.916,63.777,184.158,63.469,184.273,63.044z"/>
            <path fill="#179BD7" d="M183.195,68.718c0.433-0.054,0.361-0.511,0.338-0.82c-0.031-0.479-0.149-0.951-0.232-1.426
				c-0.604,0.392-0.853,0.926-0.66,1.638C182.827,68.326,183.038,68.738,183.195,68.718z"/>
            <path fill="#179BD7" d="M183.648,105.65c-0.205-0.041-0.41,0.022-0.407,0.259c0.004,0.356,0.153,0.664,0.558,0.696
				c0.21,0.018,0.322-0.151,0.357-0.422C184.129,105.923,183.967,105.711,183.648,105.65z"/>
            <path fill="#179BD7" d="M110.107,46.679c0.022,0.039,0.044,0.076,0.064,0.114c-0.001-0.016,0.002-0.034-0.003-0.049
				C110.16,46.719,110.13,46.7,110.107,46.679z"/>
            <path fill="#179BD7" d="M110.172,46.793c0,0.021,0.003,0.041,0.004,0.062l0.021-0.017
				C110.188,46.823,110.18,46.808,110.172,46.793z"/>
            <path fill="#179BD7" d="M183.385,48.61c0.008,0.027,0.014,0.055,0.022,0.083c-0.001-0.035-0.001-0.07-0.001-0.106L183.385,48.61z
				"/>
            <path fill="#179BD7" d="M183.407,48.865c-0.007,0.01-0.015,0.021-0.021,0.03l0.021,0.017
				C183.407,48.897,183.407,48.881,183.407,48.865z"/>
            <path fill="#179BD7" d="M183.407,48.693c0,0.058,0,0.115,0,0.172c0.017-0.021,0.03-0.042,0.03-0.062
				C183.434,48.767,183.419,48.73,183.407,48.693z"/>
            <path fill="#253B80" d="M175.457,65.348c-0.002,0.009,0.001,0.016,0,0.026l0,0l0,0l0,0c-0.007-0.001-0.012-0.003-0.02-0.005
				c0.011,0.302,0.365,0.587-0.033,0.999c-0.301-0.421-0.588-0.819-0.891-1.24c0.452-0.239,0.629,0.197,0.924,0.242
				c0-0.006-0.002-0.011-0.002-0.016C175.443,65.349,175.45,65.35,175.457,65.348c0.052-1.059-0.71-1.355-1.438-1.665
				c-0.104-0.044-0.209-0.089-0.309-0.136c-0.391-0.183-0.896-0.159-1.238-0.39c-1.539-1.032-3.09-0.691-4.555,0.012
				c-1.702,0.818-2.061,2.157-1.188,3.707c0.197,0.351,0.451,0.72,0.861,0.699c0.461-0.023,0.319-0.524,0.41-0.818
				c0.174-0.567,0.514-0.956,1.094-1.053c0.663-0.111,0.741,0.484,0.973,0.892c0.938,1.663,2.048,1.76,3.293,0.291
				c0.201-0.238,0.259-0.744,0.714-0.514c0.353,0.176,0.289,0.576,0.209,0.92c0.18,0.017,0.358,0.033,0.539,0.049
				c0.1-0.234,0.229-0.251,0.388-0.054l0,0c0.243,0.303,0.584,0.409,0.926,0.516c0.114,0.035,0.228,0.071,0.336,0.114
				c-0.339-0.484-0.557-0.931,0.311-1.066c-0.036-0.302-0.072-0.603-0.105-0.903C176.212,65.869,176.061,65.142,175.457,65.348z"/>
            <path fill="#253B80" d="M175.212,67.288L175.212,67.288c0.243,0.303,0.584,0.409,0.927,0.516
				C175.796,67.696,175.455,67.59,175.212,67.288L175.212,67.288z"/>
            <path fill="#253B80"
                  d="M175.457,65.348c0.052-1.059-0.71-1.355-1.438-1.665C174.747,63.993,175.509,64.289,175.457,65.348z"/>
            <path fill="#253B80" d="M175.457,65.374L175.457,65.374L175.457,65.374z"/>
            <path fill="#253B80" d="M173.811,60.136c-3.344-1.052-6.688-1.279-9.797,0.792c-0.347,0.23-1.043,0.354-0.793,1.04
				c0.245,0.682,0.825,0.719,1.456,0.64c1.935-0.244,3.865-0.427,5.787-0.786c1.644-0.308,3.347-0.349,5.037-0.225
				c0.267-0.076,0.532-0.153,0.801-0.229C175.835,60.245,174.659,60.403,173.811,60.136z"/>
            <path fill="#179BD7" d="M157.159,124.092c0.021,0,0.042,0.002,0.063,0.002c0.133,0,0.266-0.01,0.4-0.01
				c-0.129-0.177-0.262-0.35-0.409-0.512C157.201,123.75,157.181,123.922,157.159,124.092z"/>
            <path fill="#253B80" d="M185.564,70.049c0.084,0.493,0.17,0.986,0.254,1.479c0.176,0.044,0.355,0.089,0.531,0.135
				c0.868-2.132,0.323-4.193-0.326-6.246c-0.104-0.323-0.271-0.619-0.705-0.619c-0.498,0-0.394,0.405-0.549,0.677
				c-0.59,1.024-0.049,1.848,0.361,2.71C185.604,68.729,185.936,69.308,185.564,70.049z"/>
            <path fill="#179BD7" d="M168.79,81.316c-0.326-0.346-0.622-0.094-0.735,0.308c-0.164,0.597,1.641,3.01,2.279,2.991
				c0.568-0.096,0.676-0.545,0.393-0.95C170.141,82.839,169.484,82.055,168.79,81.316z"/>
            <path fill="#253B80" d="M165.195,83.259c0.352-0.014,0.699-0.03,1.046-0.045c0.313-0.384,0.698-0.825,0.21-1.26
				c-0.625-0.554-1.271-0.173-1.874,0.157c0,0.291,0,0.58,0,0.871C164.784,83.074,164.99,83.166,165.195,83.259z"/>
            <path fill="#253B80" d="M182.898,71.793c-0.234-0.78-0.851-0.773-1.498-0.514c-0.11,0.746,0.423,1.333,0.496,2.034
				C182.789,73.17,183.148,72.628,182.898,71.793z"/>
            <path fill="#179BD7" d="M186.12,73.344c0.401-0.644,0.407-1.15,0.229-1.681c-0.176-0.046-0.355-0.09-0.531-0.135
				C185.389,72.19,185.744,72.684,186.12,73.344z"/>
            <path fill="#179BD7"
                  d="M185.132,68.185c-0.077,0.673,0.078,1.292,0.433,1.864C185.936,69.308,185.604,68.729,185.132,68.185z"/>
            <path fill="#179BD7" d="M165.643,83.822c0.406,0.019,0.537-0.271,0.6-0.608c-0.348,0.015-0.694,0.031-1.045,0.045
				C165.198,83.563,165.303,83.809,165.643,83.822z"/>
            <path fill="#179BD7"
                  d="M176.475,67.918c0.567-0.222,0.521-0.619,0.31-1.066C175.917,66.987,176.135,67.434,176.475,67.918z"/>
            <path fill="#253B80" d="M160.466,112.99L160.466,112.99c0.011,0.004,0.022,0.003,0.032,0.005
				c-0.002,0.002-0.004,0.004-0.007,0.007c0.003-0.001,0.007-0.001,0.011-0.001c0.098-0.007,0.189-0.022,0.273-0.05
				c0.004-0.001,0.007-0.003,0.011-0.006c0.082-0.026,0.159-0.063,0.228-0.108c0.016-0.011,0.026-0.028,0.041-0.042
				c0.053-0.042,0.104-0.087,0.147-0.145c0.054-0.073,0.1-0.161,0.136-0.262C160.961,112.468,160.52,112.453,160.466,112.99z"/>
            <path fill="#253B80" d="M160.466,112.991c0.011,0.003,0.022,0.002,0.032,0.004C160.488,112.993,160.477,112.994,160.466,112.991
				L160.466,112.991z"/>
            <path fill="#253B80"
                  d="M161.201,112.65c-0.043,0.058-0.096,0.103-0.148,0.145C161.105,112.753,161.158,112.708,161.201,112.65z"
            />
            <path fill="#253B80" d="M161.012,112.837c-0.066,0.046-0.145,0.082-0.227,0.108C160.867,112.919,160.943,112.883,161.012,112.837
				z"/>
            <polygon fill="#253B80" points="160.491,113.002 160.491,113.002 160.498,112.995 			"/>
            <path fill="#253B80"
                  d="M160.773,112.951c-0.084,0.027-0.176,0.043-0.272,0.05C160.6,112.994,160.689,112.979,160.773,112.951z"
            />
            <path fill="#253B80" d="M160.498,112.995l-0.034,0.012c0.009-0.001,0.018-0.004,0.027-0.005
				C160.494,112.999,160.496,112.997,160.498,112.995z"/>
            <path fill="#253B80"
                  d="M160.466,112.99c0.054-0.537,0.495-0.522,0.871-0.602C160.961,112.468,160.52,112.453,160.466,112.99z"/>
            <path fill="#253B80" d="M160.466,112.991c0,0.006-0.002,0.01-0.002,0.016l0.034-0.012
				C160.488,112.993,160.477,112.994,160.466,112.991z"/>
            <path fill="#179BD7"
                  d="M174.824,67.342c0.129-0.018,0.258-0.035,0.388-0.054C175.053,67.091,174.924,67.108,174.824,67.342z"/>
            <path fill="#179BD7" d="M174.824,67.342c0.129-0.018,0.258-0.035,0.388-0.054l0,0C175.082,67.307,174.953,67.324,174.824,67.342z
				"/>
            <path fill="#253B80" d="M158.096,79.766l0.019-0.02c-0.389-0.16-0.608-0.007-0.831,0.335c-0.21,0.321-0.594,0.635-0.983,0.354
				c-0.358-0.261-0.214-0.729-0.097-1.098c0.237-0.758,0.547-1.473,1.363-1.805c0.618-0.25,1.08-1.215,0.836-1.309
				c-1.388-0.543-0.293-1.276-0.271-1.898c0.026-0.792-0.26-1.563-0.923-1.828c-0.601-0.239-1.003,0.612-0.997,1.018
				c0.03,1.523-1.074,2.534-1.562,3.811c-0.552,1.442,0.147,2.862-0.234,4.289c-0.449,1.667,0.833,3.51,2.438,4.073
				c1.811,0.639,3.264,0.307,4.679-0.965c0.893-0.802,1.462-1.964,0.984-2.699C160.941,79.589,159.531,78.867,158.096,79.766z"/>
            <path fill="#FFFFFF" d="M165.66,95.048c0.537,0.031,1.048-0.043,1.363-0.618c-0.053-0.396-0.324-0.556-0.688-0.572
				c-0.554-0.021-1.104,0.047-1.24,0.701C165.021,94.925,165.367,95.031,165.66,95.048z"/>
            <path fill="#253B80"
                  d="M179.146,45.186c0.064-0.06,0.125-0.121,0.188-0.183C179.116,44.905,179.076,44.988,179.146,45.186z"/>
            <path fill="#179BD7" d="M175.438,65.368c0.008,0.002,0.013,0.004,0.02,0.005l-0.021-0.021
				C175.438,65.357,175.438,65.362,175.438,65.368z"/>
            <path fill="#179BD7" d="M175.457,65.374L175.457,65.374L175.457,65.374z"/>
            <path fill="#179BD7" d="M174.514,65.126c0.305,0.421,0.592,0.819,0.893,1.24c0.398-0.412,0.043-0.697,0.033-0.999
				C175.145,65.324,174.967,64.887,174.514,65.126z"/>
            <polygon fill="#179BD7" points="175.438,65.352 175.457,65.374 175.457,65.374 175.457,65.374 			"/>
		</g>
        <circle id="XMLID_37_" fill="#179BD7" cx="157.164" cy="138.176" r="10.382"/>
        <g>
			<g id="XMLID_3_">
				<g id="XMLID_21_">
					<g id="XMLID_22_">
						<g id="XMLID_23_">
							<g id="XMLID_34_">
								<path id="XMLID_36_" fill="#179BD7" d="M102.987,90.616c-0.275,3.966-3.091,7.005-3.091,7.005s-2.372-3.395-2.096-7.362
									c0.273-3.967,3.089-7.004,3.089-7.004S103.261,86.65,102.987,90.616z"/>
                                <path id="XMLID_35_" fill="#179BD7" d="M91.249,93.68c2.179,3.327,6.119,4.603,6.119,4.603s0.411-4.121-1.767-7.449
									c-2.178-3.327-6.119-4.601-6.119-4.601S89.071,90.352,91.249,93.68z"/>
							</g>
                            <g id="XMLID_31_">
								<path id="XMLID_33_" fill="#179BD7" d="M108.49,106.172c0.224,3.971-2.192,7.336-2.192,7.336s-2.778-3.072-3-7.044
									c-0.222-3.971,2.193-7.334,2.193-7.334S108.266,102.202,108.49,106.172z"/>
                                <path id="XMLID_32_" fill="#179BD7" d="M97.227,110.677c2.577,3.028,6.644,3.804,6.644,3.804s-0.107-4.142-2.682-7.172
									c-2.575-3.031-6.646-3.803-6.646-3.803S94.65,107.646,97.227,110.677z"/>
							</g>
                            <g id="XMLID_28_">
								<path id="XMLID_30_" fill="#179BD7" d="M119.483,117.708c1.906,3.487,1.172,7.567,1.172,7.567s-3.829-1.584-5.736-5.074
									c-1.907-3.489-1.172-7.565-1.172-7.565S117.575,114.219,119.483,117.708z"/>
                                <path id="XMLID_29_" fill="#179BD7" d="M111.247,126.613c3.627,1.63,7.633,0.578,7.633,0.578s-1.875-3.692-5.503-5.322
									c-3.629-1.631-7.635-0.579-7.635-0.579S107.618,124.982,111.247,126.613z"/>
							</g>
                            <g id="XMLID_25_">
								<path id="XMLID_27_" fill="#179BD7" d="M133.711,125.408c3.065,2.535,3.89,6.594,3.89,6.594s-4.143-0.052-7.207-2.591
									c-3.062-2.535-3.886-6.597-3.886-6.597S130.649,122.869,133.711,125.408z"/>
                                <path id="XMLID_26_" fill="#179BD7" d="M129.356,136.729c3.971,0.172,7.305-2.287,7.305-2.287s-3.108-2.735-7.082-2.907
									c-3.973-0.173-7.306,2.286-7.306,2.286S125.382,136.559,129.356,136.729z"/>
							</g>
                            <path id="XMLID_24_" fill="#179BD7" d="M95.972,75.551c0.67,3.922-1.35,7.538-1.35,7.538s-3.106-2.741-3.776-6.659
								c-0.671-3.922,1.347-7.538,1.347-7.538S95.301,71.632,95.972,75.551z"/>
						</g>
					</g>
				</g>
                <g id="XMLID_5_">
					<g id="XMLID_6_">
						<g id="XMLID_7_">
							<g id="XMLID_18_">
								<path id="XMLID_20_" fill="#179BD7" d="M211.457,90.616c0.273,3.966,3.09,7.005,3.09,7.005s2.373-3.395,2.098-7.362
									c-0.274-3.967-3.09-7.004-3.09-7.004S211.184,86.65,211.457,90.616z"/>
                                <path id="XMLID_19_" fill="#179BD7" d="M223.193,93.68c-2.178,3.327-6.119,4.603-6.119,4.603s-0.409-4.121,1.769-7.449
									c2.179-3.327,6.118-4.601,6.118-4.601S225.372,90.352,223.193,93.68z"/>
							</g>
                            <g id="XMLID_15_">
								<path id="XMLID_17_" fill="#179BD7" d="M205.953,106.172c-0.225,3.971,2.191,7.336,2.191,7.336s2.778-3.072,3.002-7.044
									c0.222-3.971-2.193-7.334-2.193-7.334S206.178,102.202,205.953,106.172z"/>
                                <path id="XMLID_16_" fill="#179BD7" d="M217.217,110.677c-2.574,3.028-6.646,3.804-6.646,3.804s0.109-4.142,2.685-7.172
									c2.576-3.031,6.646-3.803,6.646-3.803S219.794,107.646,217.217,110.677z"/>
							</g>
                            <g id="XMLID_12_">
								<path id="XMLID_14_" fill="#179BD7" d="M194.961,117.708c-1.906,3.487-1.172,7.567-1.172,7.567s3.829-1.584,5.736-5.074
									c1.906-3.489,1.17-7.565,1.17-7.565S196.868,114.219,194.961,117.708z"/>
                                <path id="XMLID_13_" fill="#179BD7" d="M203.198,126.613c-3.628,1.63-7.636,0.578-7.636,0.578s1.877-3.692,5.504-5.322
									c3.629-1.631,7.635-0.579,7.635-0.579S206.826,124.982,203.198,126.613z"/>
							</g>
                            <g id="XMLID_9_">
								<path id="XMLID_11_" fill="#179BD7" d="M180.732,125.408c-3.064,2.535-3.891,6.594-3.891,6.594s4.143-0.052,7.204-2.591
									c3.063-2.535,3.89-6.597,3.89-6.597S183.795,122.869,180.732,125.408z"/>
                                <path id="XMLID_10_" fill="#179BD7" d="M185.086,136.729c-3.971,0.172-7.304-2.287-7.304-2.287s3.108-2.735,7.081-2.907
									c3.973-0.173,7.307,2.286,7.307,2.286S189.063,136.559,185.086,136.729z"/>
							</g>
                            <path id="XMLID_8_" fill="#179BD7" d="M218.473,75.551c-0.671,3.922,1.351,7.538,1.351,7.538s3.106-2.741,3.774-6.659
								c0.672-3.922-1.35-7.538-1.35-7.538S219.143,71.632,218.473,75.551z"/>
						</g>
					</g>
				</g>
			</g>
            <g>
				<path fill="#179BD7" d="M96.713,54.269l-0.137,0.788l3.153,0.545c0.183,0.508,0.3,1.224,0.351,2.147
					c0.051,0.924-0.012,1.9-0.19,2.931c-0.34,1.965-1.124,3.416-2.352,4.351c-1.228,0.936-2.925,1.215-5.09,0.841
					c-2.218-0.383-3.735-1.217-4.553-2.5c-0.817-1.283-1.048-2.955-0.691-5.015c0.173-0.999,0.44-1.916,0.801-2.752
					c0.361-0.836,0.711-1.452,1.05-1.848l3.768,0.652l-0.682,3.941L91.4,58.222c-0.442-0.077-0.775-0.039-1.002,0.111
					c-0.226,0.15-0.374,0.425-0.443,0.825c-0.069,0.399-0.022,0.708,0.14,0.925c0.163,0.218,0.465,0.365,0.906,0.441l4.604,0.796
					c0.441,0.076,0.775,0.04,1.001-0.111c0.227-0.15,0.374-0.425,0.443-0.825c0.069-0.399,0.022-0.708-0.14-0.925
					c-0.163-0.218-0.465-0.365-0.906-0.441l-0.11-0.019l-0.147,0.851l-2.349-0.406l0.965-5.581L96.713,54.269z"/>
                <path fill="#179BD7" d="M101.299,53.397c-0.435,0.623-0.894,1.104-1.377,1.446l-2.634-0.997l1.132-2.993l0.15,0.057
					c0.539,0.204,0.906,0.047,1.103-0.472c0.102-0.27,0.106-0.499,0.012-0.688c-0.093-0.189-0.295-0.343-0.604-0.46l-5.836-2.208
					l-0.51,1.347L90.281,47.5l2.378-6.285l2.454,0.929l-0.283,0.748l5.028,1.903c1.466,0.555,2.399,1.398,2.798,2.53
					c0.398,1.132,0.309,2.461-0.269,3.987C102.097,52.08,101.734,52.775,101.299,53.397z"/>
                <path fill="#179BD7" d="M104.521,45.487l-2.298-1.268l0.386-0.7l-6.305-3.478l-0.386,0.7l-2.298-1.267l2.937-5.324l2.297,1.268
					l-0.386,0.701l6.305,3.478l0.386-0.701l2.298,1.268L104.521,45.487z"/>
                <path fill="#179BD7" d="M111.055,19.934l-0.52,0.607l5.47,4.682l0.52-0.608l1.994,1.706l-3.933,4.595l-1.994-1.707l0.5-0.583
					l-4.255-3.641l4.479,7.414l-1.54,1.799l-8.008-3.168l4.194,3.589l0.5-0.583l1.994,1.706l-3.413,3.987l-1.994-1.706l0.521-0.608
					l-5.47-4.682l-0.521,0.607l-1.994-1.706l4.765-5.567l4.875,1.982l-2.752-4.462l4.588-5.361L111.055,19.934z"/>
                <path fill="#179BD7" d="M119.355,11.02l4.355-2.928l1.464,2.178l-0.664,0.446l5.481,8.153l-3.731,2.508l-7.917-3.373
					l2.562,3.811l0.637-0.428l1.464,2.177l-4.355,2.928l-1.464-2.177l0.664-0.447l-4.017-5.975l-0.664,0.446l-1.464-2.178
					l4.793-3.223l7.072,2.977l-2.116-3.147l-0.637,0.429L119.355,11.02z"/>
                <path fill="#179BD7" d="M140.766,11.903l0.598-0.228l0.933,2.453l-5.863,2.229l-0.933-2.453l0.897-0.341l-0.694-1.105
					l-2.034,0.773l0.215,1.288l0.897-0.341l0.933,2.453l-5.115,1.944l-0.933-2.453l0.598-0.228L129.303,5.75l5.444-2.069
					L140.766,11.903z M133.397,11.521l1.376-0.523l-1.745-2.743l-0.149,0.057L133.397,11.521z"/>
                <path fill="#179BD7" d="M148.88,9.135l3.14-0.528l0.653,3.882l-10.43,1.753l-0.382-2.272l3.613-8.233l-1.641,0.276l0.217,1.294
					l-3.14,0.528l-0.653-3.881l10.099-1.698l0.382,2.272l-3.597,8.23l1.957-0.329L148.88,9.135z"/>
                <path fill="#179BD7" d="M152.839,12.638l-0.059-2.624l0.8-0.018l-0.163-7.199l-0.8,0.018l-0.059-2.623l6.079-0.137l0.059,2.623
					l-0.8,0.018l0.163,7.198l0.8-0.018l0.059,2.624L152.839,12.638z"/>
                <path fill="#179BD7" d="M175.55,2.47l5.107,1.208l-0.604,2.554l-0.777-0.185l-2.264,9.561l-4.375-1.036l-2.9-8.102l-1.057,4.469
					l0.746,0.177l-0.604,2.554l-5.107-1.208l0.604-2.554l0.779,0.185l1.657-7.007l-0.778-0.184l0.604-2.554l5.621,1.33l2.617,7.212
					l0.873-3.69l-0.748-0.177L175.55,2.47z"/>
                <path fill="#179BD7" d="M177.811,16.196l1.049-2.405l0.733,0.32l2.882-6.599l-0.733-0.32l1.051-2.405l5.571,2.433l-1.051,2.405
					l-0.731-0.32l-2.881,6.599l0.731,0.32l-1.05,2.405L177.811,16.196z"/>
                <path fill="#179BD7" d="M183.666,18.631l1.376-2.234l0.683,0.419l3.774-6.13l-0.681-0.42l1.375-2.234l5.75,3.541l-1.377,2.234
					l-1.254-0.772l-3.774,6.13l1.226,0.755l0.772-1.253l2.711,1.67l-2.147,3.487L183.666,18.631z"/>
                <path fill="#179BD7" d="M193.734,25.202c-0.566-0.736-0.959-1.351-1.178-1.844l2.1-2.372l2.636,2.333
					c-0.219,0.248-0.321,0.477-0.31,0.688s0.166,0.447,0.463,0.708c0.246,0.219,0.459,0.339,0.634,0.358
					c0.175,0.019,0.329-0.046,0.464-0.198c0.113-0.127,0.158-0.284,0.137-0.467c-0.022-0.183-0.119-0.437-0.291-0.759l-0.711-1.271
					c-0.59-1.121-0.877-2.08-0.861-2.878c0.017-0.798,0.367-1.584,1.054-2.359c0.834-0.942,1.778-1.385,2.832-1.328
					s2.304,0.725,3.749,2.005c0.693,0.615,1.285,1.263,1.773,1.944c0.485,0.681,0.814,1.303,0.984,1.867l-1.898,2.144l-2.396-2.121
					c0.354-0.399,0.282-0.818-0.213-1.257c-0.239-0.212-0.437-0.333-0.588-0.361c-0.153-0.028-0.298,0.033-0.433,0.185
					c-0.119,0.136-0.156,0.295-0.111,0.477c0.045,0.183,0.16,0.435,0.347,0.755l0.724,1.282c0.592,1.037,0.879,1.957,0.859,2.759
					c-0.02,0.802-0.357,1.575-1.016,2.317c-0.897,1.014-1.918,1.479-3.062,1.393c-1.144-0.085-2.372-0.711-3.69-1.878
					C194.967,26.646,194.301,25.938,193.734,25.202z"/>
                <path fill="#179BD7" d="M205.143,32.673l0.438,0.669l6.022-3.945l-0.438-0.669l2.195-1.438l4.022,6.144
					c0.731,1.115,1.073,2.134,1.027,3.057c-0.046,0.922-0.493,1.662-1.341,2.217c-0.526,0.345-1.053,0.511-1.577,0.498
					c-0.524-0.013-0.988-0.127-1.392-0.342c-0.402-0.215-0.735-0.458-1.004-0.729l-0.134,0.088c0.353,0.674,0.526,1.377,0.521,2.107
					c-0.006,0.731-0.445,1.383-1.32,1.956c-0.938,0.613-1.854,0.709-2.747,0.288c-0.894-0.421-1.71-1.194-2.446-2.319l-4.022-6.144
					L205.143,32.673z M208.57,37.906c0.17,0.259,0.365,0.408,0.589,0.446c0.224,0.039,0.481-0.038,0.776-0.231l0.588-0.386
					c0.295-0.193,0.47-0.399,0.522-0.62c0.054-0.22-0.005-0.459-0.174-0.718l-0.535-0.816l-2.302,1.508L208.57,37.906z
					 M212.338,35.305c0.169,0.259,0.365,0.408,0.589,0.446c0.224,0.039,0.481-0.038,0.775-0.231l0.481-0.316
					c0.295-0.193,0.469-0.399,0.521-0.619c0.054-0.22-0.004-0.459-0.174-0.718l-0.473-0.723l-2.195,1.438L212.338,35.305z"/>
                <path fill="#179BD7" d="M211.221,44.94c0.563-1.363,1.893-2.456,3.987-3.28c2.094-0.824,3.813-0.93,5.153-0.317
					c1.342,0.613,2.369,1.828,3.084,3.644c0.716,1.816,0.791,3.406,0.227,4.769c-0.564,1.362-1.895,2.456-3.988,3.28
					c-2.095,0.824-3.813,0.93-5.152,0.317c-1.342-0.613-2.37-1.828-3.086-3.644C210.73,47.893,210.654,46.303,211.221,44.94z
					 M214.662,49.32c0.245,0.098,0.557,0.073,0.934-0.075l4.497-1.769c0.378-0.148,0.622-0.342,0.734-0.581
					c0.11-0.239,0.103-0.528-0.031-0.865c-0.133-0.338-0.321-0.556-0.565-0.654c-0.246-0.098-0.558-0.073-0.935,0.075l-4.497,1.769
					c-0.387,0.152-0.634,0.347-0.74,0.584c-0.107,0.237-0.096,0.524,0.037,0.862C214.229,49.003,214.417,49.221,214.662,49.32z"/>
                <path fill="#179BD7" d="M216.475,54.875l0.131,0.789l7.103-1.188l-0.132-0.789l2.588-0.433l1.212,7.243
					c0.228,1.357,0.122,2.44-0.315,3.249c-0.438,0.809-1.283,1.318-2.535,1.527c-0.705,0.118-1.338,0.078-1.901-0.12
					c-0.563-0.198-0.987-0.543-1.276-1.036l-0.154,0.042c0.012,1.036-0.525,1.645-1.608,1.826l-1.215,0.204l0.124,0.742
					l-2.588,0.433l-0.838-5.003l3.709-0.62c0.41-0.069,0.709-0.181,0.899-0.337c0.19-0.156,0.302-0.37,0.331-0.64
					c0.03-0.27,0.008-0.642-0.072-1.115l-2.588,0.433l0.174,1.042l-2.588,0.433l-1.045-6.25L216.475,54.875z M222.001,60.18
					c0.051,0.305,0.171,0.52,0.358,0.646c0.188,0.125,0.457,0.159,0.805,0.101l0.568-0.095c0.347-0.058,0.588-0.177,0.727-0.357
					c0.139-0.18,0.182-0.422,0.13-0.728l-0.144-0.852l-2.588,0.433L222.001,60.18z"/>
			</g>
		</g>
	</g>
    <g>
		<path fill="#FFFFFF" d="M154.927,134.197c-0.061,0-0.122-0.023-0.172-0.08c0.103-0.063,0.172-0.202,0.172-0.328
			c0-0.135-0.077-0.256-0.279-0.256c-0.209,0-0.354,0.121-0.354,0.332c0,0.599,0.858,0.633,0.858,1.482
			c0,0.538-0.397,0.887-1.011,0.887c-0.305,0-0.843-0.065-0.843-0.614c0-0.358,0.267-0.55,0.561-0.55
			c0.172,0,0.278,0.058,0.309,0.193c-0.309,0.027-0.446,0.157-0.446,0.42c0,0.256,0.198,0.366,0.377,0.366
			c0.301,0,0.42-0.264,0.42-0.546c0-0.717-0.824-0.873-0.824-1.441c0-0.399,0.454-0.709,0.908-0.709c0.203,0,0.641,0.03,0.641,0.457
			C155.244,134.029,155.125,134.197,154.927,134.197z"/>
        <path fill="#FFFFFF" d="M156.134,134.309l-0.275,1.297c-0.007,0.041-0.015,0.084-0.015,0.117c0,0.084,0.038,0.146,0.191,0.146
			c0.152,0,0.351-0.215,0.503-0.336h0.13c-0.176,0.175-0.606,0.683-0.904,0.683c-0.293,0-0.477-0.13-0.477-0.416
			c0-0.057,0.007-0.122,0.023-0.194l0.274-1.297H156.134L156.134,134.309z M155.959,133.499c0.167,0,0.305,0.137,0.305,0.306
			c0,0.168-0.138,0.301-0.305,0.301c-0.168,0-0.302-0.133-0.302-0.301C155.657,133.636,155.791,133.499,155.959,133.499z"/>
        <path fill="#FFFFFF" d="M157.88,135.604c-0.011,0.043-0.019,0.084-0.019,0.123c0,0.084,0.042,0.142,0.191,0.142
			c0.152,0,0.209-0.119,0.362-0.241h0.129c-0.175,0.176-0.465,0.588-0.763,0.588c-0.298,0-0.473-0.13-0.473-0.416
			c0-0.061,0.008-0.122,0.023-0.193l0.145-0.688c0.008-0.034,0.011-0.068,0.011-0.1c0-0.137-0.072-0.226-0.175-0.226
			c-0.091,0-0.16,0.026-0.24,0.08l-0.324,1.541h-0.549l0.404-1.907h0.549l-0.046,0.207c0.156-0.115,0.332-0.207,0.5-0.207
			c0.206,0,0.438,0.221,0.438,0.478c0,0.03,0,0.062-0.008,0.092L157.88,135.604z"/>
        <path fill="#FFFFFF" d="M159.385,134.578c0-0.092-0.057-0.13-0.141-0.13c-0.32,0-0.526,0.622-0.526,1.034
			c0,0.225,0.046,0.408,0.278,0.408c0.271,0,0.488-0.16,0.664-0.358h0.129c-0.183,0.206-0.389,0.683-1.064,0.683
			c-0.317,0-0.523-0.176-0.523-0.626c0-0.557,0.241-1.293,0.98-1.293c0.206,0,0.42,0.054,0.42,0.265
			c0,0.041-0.004,0.075-0.019,0.125c-0.019-0.012-0.05-0.022-0.096-0.022c-0.034,0-0.072,0.008-0.122,0.022
			C159.377,134.645,159.385,134.607,159.385,134.578z"/>
        <path fill="#FFFFFF" d="M159.525,135.607c0-0.483,0.206-1.334,0.9-1.334c0.313,0,0.488,0.129,0.488,0.396
			c0,0.466-0.5,0.731-0.862,0.778c-0.008,0.061-0.011,0.117-0.011,0.164c0,0.252,0.125,0.328,0.274,0.328
			c0.179,0,0.333-0.104,0.488-0.244c0,0.412-0.332,0.519-0.713,0.519C159.723,136.215,159.525,135.938,159.525,135.607z
			 M160.551,134.477c-0.213,0-0.389,0.431-0.469,0.789c0.351-0.005,0.6-0.306,0.604-0.576
			C160.686,134.607,160.666,134.477,160.551,134.477z"/>
        <path fill="#FFFFFF" d="M153.053,140.643c0.006,0.103,0.006,0.189,0.006,0.279c0,0.628-0.127,0.951-0.755,0.951
			c-0.692,0-0.927-0.229-1.574-0.229c-0.146,0-0.375,0.133-0.501,0.178c-0.013-0.069-0.019-0.139-0.019-0.203
			c0-1.391,2.095-2.018,2.095-3.707c0-0.311-0.203-0.52-0.387-0.52c-0.425,0-0.514,0.195-0.514,0.514
			c0,0.146,0.063,0.381,0.241,0.432c-0.165,0.146-0.336,0.217-0.489,0.217c-0.254,0-0.451-0.203-0.451-0.572
			c0-0.432,0.349-0.934,1.308-0.934c0.87,0,1.206,0.406,1.206,1.021c0,1.416-1.733,2.039-2.26,2.896
			c0.273,0,0.635,0.089,1.143,0.114C152.564,141.08,152.697,140.979,153.053,140.643z"/>
        <path fill="#FFFFFF" d="M156.933,138.699c0,1.264-0.717,3.162-2.019,3.162c-1.092,0-1.314-0.616-1.314-1.67
			c0-1.732,0.838-3.148,2.203-3.148C156.597,137.043,156.933,137.633,156.933,138.699z M154.572,140.369
			c0,0.47,0.07,0.959,0.375,0.959c0.724,0,1.155-1.563,1.155-3.035c0-0.52-0.044-0.92-0.343-0.92c-0.381,0-1.047,0.939-1.155,2.367
			C154.591,139.912,154.572,140.135,154.572,140.369z"/>
        <path fill="#FFFFFF" d="M160.527,138.699c0,1.264-0.716,3.162-2.019,3.162c-1.092,0-1.314-0.616-1.314-1.67
			c0-1.732,0.838-3.148,2.203-3.148C160.191,137.043,160.527,137.633,160.527,138.699z M158.167,140.369
			c0,0.47,0.07,0.959,0.375,0.959c0.724,0,1.155-1.563,1.155-3.035c0-0.52-0.044-0.92-0.343-0.92c-0.381,0-1.047,0.939-1.155,2.367
			C158.186,139.912,158.167,140.135,158.167,140.369z"/>
        <path fill="#FFFFFF" d="M160.645,140.561c0-0.578,0.367-1.188,1.143-1.403c-0.375-0.216-0.54-0.533-0.54-0.863
			c0-0.608,0.577-1.244,1.415-1.244c0.801,0,1.199,0.427,1.199,0.921c0,0.426-0.297,0.901-0.889,1.188
			c0.541,0.166,0.77,0.559,0.77,0.99c0,0.774-0.736,1.688-1.76,1.688C161.113,141.836,160.645,141.213,160.645,140.561z
			 M162.745,140.331c0-0.354-0.12-0.718-0.399-0.958c-0.527,0.35-0.781,0.965-0.781,1.428c0,0.361,0.152,0.635,0.451,0.635
			C162.447,141.436,162.745,140.896,162.745,140.331z M163.057,137.792c0-0.272-0.115-0.457-0.33-0.457
			c-0.412,0-0.647,0.406-0.647,0.838c0,0.286,0.108,0.577,0.337,0.769C162.84,138.662,163.057,138.16,163.057,137.792z"/>
	</g>
</g>
</svg>
