<?xml version="1.0" encoding="utf-8"?>
<!-- Generator: Adobe Illustrator 26.3.1, SVG Export Plug-In . SVG Version: 6.00 Build 0)  -->
<svg version="1.1" id="Layer_1" xmlns="http://www.w3.org/2000/svg" xmlns:xlink="http://www.w3.org/1999/xlink" x="0px" y="0px"
	 viewBox="0 0 510.5 271" style="enable-background:new 0 0 510.5 271;" xml:space="preserve">
<style type="text/css">
	.st0{fill:#0D5285;}
	.st1{fill:#666666;}
</style>
<g id="XMLID_11_">
	<path id="XMLID_25_" class="st0" d="M132.5,265.5h-18.6l-10-11.9H82.4v11.9H68.5v-23h39.2c4.3,0,7.7-2,7.7-5c0-3.5-2.9-5.2-7.7-5.2
		H68.5l9.1-11.7h28.9c10.2,0,23.1,3.2,23.1,16.1c0,7-4.4,12.8-11.8,14.3c1.5,1.1,3.2,2.8,6.3,5.9L132.5,265.5z"/>
	<path id="XMLID_23_" class="st0" d="M187.4,254l-8.9,11.6h-43.3v-45h52.1l-9,11.7h-29.1v5.4h35.7l-8,10.2h-27.7v6.1H187.4z"/>
	<path id="XMLID_21_" class="st0" d="M206.4,220.5l20.3,29.9l21.1-29.9h16.4l-28.8,40.7c-2,2.6-4.7,5-9,5c-4.2,0-6.9-2.2-8.9-5
		l-28.2-40.7H206.4z"/>
	<path id="XMLID_19_" class="st0" d="M313.1,265.5h-42.7c-3.5,0-6.5-2-6.5-5.7c0-2.1,1.1-4.1,3-5.6l16.4-12.9
		c7.5-6,10.7-8.2,12.4-9.4c-2.4,0.2-6.5,0.3-15.5,0.3h-18l8.9-11.7h41.5c3.5,0,6.5,2,6.5,5.7c0,2-1.1,4.1-3,5.5l-16.6,13.2
		c-7.4,5.9-10.5,8.1-12.2,9.4c2.2-0.1,10.8-0.3,17.9-0.3h16.3L313.1,265.5z"/>
	<path id="XMLID_16_" class="st0" d="M387.4,243c0,16.1-11,23.3-32.9,23.3c-21.9,0-32.9-7.2-32.9-23.3s11-23.2,32.9-23.2
		C376.3,219.8,387.4,226.9,387.4,243z M373.5,243c0-9.7-5-11.5-19-11.5s-19,1.8-19,11.5c0,9.7,5,11.6,19,11.6S373.5,252.7,373.5,243
		z"/>
	<path id="XMLID_14_" class="st0" d="M431.1,263.9l-27.6-24.8v26.4h-12.6v-37.3c0-6,3.6-8.4,7.6-8.4c1.7,0,3.4,0.4,5.6,2.4
		l27.6,24.8v-26.4h12.7v37.3c0,6-3.6,8.5-7.7,8.5C434.9,266.3,433.3,265.9,431.1,263.9z"/>
	<path id="XMLID_12_" class="st0" d="M501.5,254l-8.9,11.6h-43.3v-45h52.1l-9,11.7h-29.1v5.4h35.7l-8,10.2h-27.7v6.1H501.5z"/>
</g>
<g id="XMLID_7_">
	<path id="XMLID_10_" class="st1" d="M69.4,118.7c14.3-9.5,26.1-15.6,34.8-20H3.6v98H18C17,158.3,46.2,134.1,69.4,118.7z"/>
	<path id="XMLID_9_" class="st1" d="M188.7,65.1c21.9-6.9,42-12.3,57.1-16C232.7,14.5,191,5,156.7,5H40.2L3.6,54.8h157.8
		C174.4,54.8,183.9,58.3,188.7,65.1z"/>
	<path id="XMLID_8_" class="st1" d="M202.5,134.2c26.3-5.6,43.2-25.4,46.7-50.6c-6.9,2.8-13.7,5.6-20.5,8.5
		c-26.1,11.2-46.7,20-72.1,36.3c-9,5.8-17.3,11.6-25,17.5h14.2l40.4,50.7h75.1L228,159.4C215.5,146,208.8,139.1,202.5,134.2z"/>
</g>
<g id="XMLID_4_">
	<path id="XMLID_6_" class="st1" d="M485.1,8.7c-4.2-2.4-9.3-3.7-14.7-3.7H303.1l-26.8,37.4C359.4,26,451.1,12.3,485.1,8.7z"/>
	<path id="XMLID_5_" class="st1" d="M440,147.4c-28.5,0-63.2,0.6-72.1,1.1c7-5.2,19.5-14.9,49.3-39.8l66.9-56.2
		c7.6-6,12.2-14.9,12.2-23.5c0-4-0.8-7.6-2.3-10.7c-2.7,0.5-6.3,1.1-10.7,1.9c-27,4.6-81.9,14.1-151.3,34.6h7.9
		c36.1,0,52.6-0.3,62.3-1.1c-6.8,5.2-19.8,14.6-49.9,40.1l-66.1,55c-7.6,6.3-12.2,14.9-12.2,23.8c0,15.5,11.9,24.1,26,24.1H472
		l33.9-49.3H440z"/>
</g>
<path id="XMLID_3_" class="st0" d="M59.7,265.9c-3.3-2.7,0.4-22.4,1-26.3c1.3-8.6,3.6-16.7,7.1-24.6c17.1-38.7,51.5-67.9,86.4-90.3
	c25.2-16.1,45.2-24.8,72.8-36.7c46.5-20,83.7-31.4,95.3-35C424,22.2,498.7,14.4,498.5,12.5c-0.4-2.4-118.2,13.9-224.7,34.9
	c0,0-65.3,12.9-128.6,37.8c-19.5,7.7-37.8,16.9-37.8,16.9c-9.2,4.6-21.1,10.7-35.5,20.3c-31.1,20.7-56.1,47.4-47.8,87.7
	C28.7,232.1,42.4,251.6,59.7,265.9z"/>
</svg>
